<svg id="Objet_dynamique_vectoriel" data-name="Objet dynamique vectoriel" xmlns="http://www.w3.org/2000/svg" xmlns:xlink="http://www.w3.org/1999/xlink" width="479" height="385" viewBox="0 0 479 385">
  <defs>
    <clipPath id="clip-path">
      <rect width="479" height="385" fill="none"/>
    </clipPath>
  </defs>
  <g>
    <g clip-path="url(#clip-path)">
      <path id="Tracé_171721" data-name="Tracé 171721" d="M313.587,191.077V320.853c0,.35-.015.7-.045,1.05.027.654.045,1.309.045,1.97,0,33.705-33.236,61.127-74.088,61.127s-74.088-27.422-74.088-61.127c0-.661.018-1.317.046-1.972-.031-.35-.046-.7-.046-1.048V191.077" fill="#fff"/>
      <path id="Tracé_171722" data-name="Tracé 171722" d="M187.99,352.572H134.909A12.588,12.588,0,0,1,122.33,340v-70.46c0-6.93,6.78-14.252,13.716-14.252H187.14c6.936,0,13.429,7.322,13.429,14.252V340a12.588,12.588,0,0,1-12.578,12.569" fill="#fff"/>
      <path id="Tracé_171723" data-name="Tracé 171723" d="M344.092,352.572H291.01A12.589,12.589,0,0,1,278.431,340v-70.46c0-7.283,5.565-15.253,13.9-15.253l53.1,1c5.536,0,11.241,7.791,11.241,14.252V340a12.588,12.588,0,0,1-12.578,12.569" fill="#fff"/>
      <path id="Tracé_171724" data-name="Tracé 171724" d="M81.506,244.732,2.769,172.5a8.431,8.431,0,0,1-2.314-8.963,8.775,8.775,0,0,1,7.2-5.794L162.4,136.588,231.557,4.713a9.049,9.049,0,0,1,15.887,0L316.6,136.587l154.743,21.161a8.893,8.893,0,0,1,7.2,5.8,8.433,8.433,0,0,1-2.314,8.961l-72.136,66.17" fill="#fff"/>
      <path id="Tracé_171725" data-name="Tracé 171725" d="M448.481,255.684H30.139a6.109,6.109,0,0,1-6.185-5.423l-2.759-27.866L5.938,195.351a5.788,5.788,0,0,1,.045-5.822,6.264,6.264,0,0,1,5.411-3.046H467.605a6.256,6.256,0,0,1,5.433,3.084,5.783,5.783,0,0,1-.019,5.858l-15.738,26.992-2.613,27.814a6.1,6.1,0,0,1-6.187,5.453" fill="#fff"/>
      <path id="Tracé_171726" data-name="Tracé 171726" d="M304.732,191.077a3.411,3.411,0,0,0-3.4-3.4H177.67a3.411,3.411,0,0,0-3.4,3.4V320.853a3.4,3.4,0,0,0,.073.7c-.042.771-.073,1.545-.073,2.324,0,28.873,29.205,52.278,65.232,52.278s65.231-23.405,65.231-52.278c0-.779-.031-1.553-.073-2.324a3.394,3.394,0,0,0,.073-.7Z" fill="#fc4e2d"/>
      <path id="Tracé_171727" data-name="Tracé 171727" d="M239.5,380.743c-38.5,0-69.828-25.512-69.828-56.871,0-.7.023-1.4.055-2.09a8.025,8.025,0,0,1-.055-.929V191.077a8.005,8.005,0,0,1,8-7.993H301.329a8,8,0,0,1,8,7.993V320.853a7.842,7.842,0,0,1-.055.931c.034.693.055,1.389.055,2.088,0,31.359-31.324,56.871-69.828,56.871m-60.635-60.02.1.473-.032.6c-.038.69-.067,1.382-.067,2.077,0,26.295,27.2,47.686,60.635,47.686s60.636-21.391,60.636-47.686c0-.695-.028-1.386-.067-2.073l-.033-.606.1-.471V192.27H178.864Z" fill="#152e55"/>
      <path id="Tracé_171728" data-name="Tracé 171728" d="M272.637,204.55a1.732,1.732,0,0,0-1.728-1.727H208.091a1.732,1.732,0,0,0-1.728,1.727V317.7a1.712,1.712,0,0,0,.037.353c-.021.391-.037.785-.037,1.18,0,14.667,14.836,26.557,33.137,26.557s33.138-11.89,33.138-26.557c0-.4-.016-.789-.037-1.18a1.714,1.714,0,0,0,.037-.353Z" fill="#fff"/>
      <path id="Tracé_171729" data-name="Tracé 171729" d="M239.5,351.389c-20.806,0-37.734-13.974-37.734-31.15,0-.334.009-.668.023-1-.015-.178-.023-.356-.023-.535V205.55a6.33,6.33,0,0,1,6.326-6.319h62.817a6.329,6.329,0,0,1,6.325,6.319V318.705c0,.178-.007.356-.023.536.015.33.023.664.023,1,0,17.176-16.927,31.15-37.733,31.15m-28.541-32.981.063.3-.032.6c-.018.308-.031.619-.031.931,0,12.111,12.8,21.964,28.541,21.964s28.541-9.853,28.541-21.964c0-.315-.014-.628-.031-.939l-.031-.582.062-.3v-110H210.959Z" fill="#152e55"/>
      <path id="Tracé_171730" data-name="Tracé 171730" d="M188.873,343.723H134.026a2.848,2.848,0,0,1-2.84-2.838V268.663a2.848,2.848,0,0,1,2.84-2.838h54.846a2.848,2.848,0,0,1,2.84,2.838v72.223a2.848,2.848,0,0,1-2.84,2.838" fill="#fff"/>
      <path id="Tracé_171731" data-name="Tracé 171731" d="M187.99,348.316H134.909A8.325,8.325,0,0,1,126.59,340v-70.46a8.326,8.326,0,0,1,8.319-8.313H187.99a8.325,8.325,0,0,1,8.318,8.313V340a8.325,8.325,0,0,1-8.318,8.311m-52.208-9.185h51.334V270.418H135.783Z" fill="#152e55"/>
      <path id="Tracé_171732" data-name="Tracé 171732" d="M290.128,343.723h54.846a2.848,2.848,0,0,0,2.84-2.838V268.663a2.848,2.848,0,0,0-2.84-2.838H290.128a2.848,2.848,0,0,0-2.84,2.838v72.223a2.848,2.848,0,0,0,2.84,2.838" fill="#fff"/>
      <path id="Tracé_171733" data-name="Tracé 171733" d="M344.092,348.316H291.011A8.325,8.325,0,0,1,282.692,340v-70.46c0-4.584,3.732-8.313,10.127-8.313H345.9c2.779,0,6.511,3.729,6.511,8.313V340a8.325,8.325,0,0,1-8.318,8.311m-52.209-9.185h51.334V270.418H291.883Z" fill="#152e55"/>
      <path id="Tracé_171734" data-name="Tracé 171734" d="M277.555,296.41c-6.1,0-14.291-2-16.032-2.869s-6.1-6.961-7.837-10.411-6.749-7.428-13.715-7.428S228,279.68,226.255,283.13s-6.1,9.541-7.837,10.411a43.326,43.326,0,0,1-14.778,2.869H191.713v17.2h96.515v-17.2Z" fill="#152e55"/>
      <path id="Tracé_171735" data-name="Tracé 171735" d="M243.9,287.387h-8.838l-4.42,7.649,4.42,7.65H243.9l4.419-7.65Z" fill="#fc4e2d"/>
      <path id="Tracé_171736" data-name="Tracé 171736" d="M348.761,280.406c1.8,0,3.268-1.106,3.268-2.467s-1.467-2.467-3.268-2.467H309.433c-1.8,0-3.267,1.107-3.267,2.467s1.466,2.467,3.267,2.467Z" fill="#152e55"/>
      <path id="Tracé_171737" data-name="Tracé 171737" d="M348.761,290.293c1.8,0,3.268-1.106,3.268-2.467s-1.467-2.467-3.268-2.467H317.627c-1.8,0-3.268,1.107-3.268,2.467s1.466,2.467,3.268,2.467Z" fill="#152e55"/>
      <path id="Tracé_171738" data-name="Tracé 171738" d="M348.761,295.246H327.7c-1.8,0-3.268,1.106-3.268,2.467s1.466,2.467,3.268,2.467h21.064c1.8,0,3.268-1.107,3.268-2.467s-1.467-2.467-3.268-2.467" fill="#152e55"/>
      <path id="Tracé_171739" data-name="Tracé 171739" d="M348.892,310.066c1.8,0,3.268-1.106,3.268-2.468s-1.467-2.467-3.268-2.467H335.846c-1.8,0-3.268,1.107-3.268,2.467s1.467,2.468,3.268,2.468Z" fill="#152e55"/>
      <path id="Tracé_171740" data-name="Tracé 171740" d="M130.239,280.406c-1.8,0-3.268-1.106-3.268-2.467s1.467-2.467,3.268-2.467h39.328c1.8,0,3.267,1.107,3.267,2.467s-1.466,2.467-3.267,2.467Z" fill="#152e55"/>
      <path id="Tracé_171741" data-name="Tracé 171741" d="M130.239,290.293c-1.8,0-3.268-1.106-3.268-2.467s1.467-2.467,3.268-2.467h31.134c1.8,0,3.268,1.107,3.268,2.467s-1.466,2.467-3.268,2.467Z" fill="#152e55"/>
      <path id="Tracé_171742" data-name="Tracé 171742" d="M130.239,295.246H151.3c1.8,0,3.268,1.106,3.268,2.467s-1.466,2.467-3.268,2.467H130.239c-1.8,0-3.268-1.107-3.268-2.467s1.467-2.467,3.268-2.467" fill="#152e55"/>
      <path id="Tracé_171743" data-name="Tracé 171743" d="M130.108,310.066c-1.8,0-3.268-1.106-3.268-2.468s1.467-2.467,3.268-2.467h13.046c1.8,0,3.268,1.107,3.268,2.467s-1.467,2.468-3.268,2.468Z" fill="#152e55"/>
      <path id="Tracé_171744" data-name="Tracé 171744" d="M138.923,240.747c25.822.062,51.632.873,77.46.763q39.632-.17,79.244-1.616c26.8-.978,53.6-2.671,80.4-4.11l62.757-58.348-137.148-19.4L239.5,41.39,177.364,158.04l-137.148,19.4L108.47,240.9c10.155-.026,20.312-.172,30.454-.148" fill="#fc4e2d"/>
      <path id="Tracé_171745" data-name="Tracé 171745" d="M66.679,198.1l-9.952-9.129a2.463,2.463,0,0,0-3.329.04,2.038,2.038,0,0,0,.043,3.016l9.951,9.129a2.529,2.529,0,0,0,3.328-.04,2.037,2.037,0,0,0-.041-3.016" fill="#152e55"/>
      <path id="Tracé_171746" data-name="Tracé 171746" d="M86.581,216.356l-9.951-9.127a2.462,2.462,0,0,0-3.329.039,2.041,2.041,0,0,0,.043,3.017l9.951,9.126a2.53,2.53,0,0,0,3.329-.039,2.04,2.04,0,0,0-.043-3.016" fill="#152e55"/>
      <path id="Tracé_171747" data-name="Tracé 171747" d="M92.554,227.039a2.062,2.062,0,0,0,.688,1.5l9.952,9.127a2.531,2.531,0,0,0,3.329-.04,2.035,2.035,0,0,0-.043-3.016l-9.95-9.127a2.461,2.461,0,0,0-3.329.04,2.051,2.051,0,0,0-.647,1.514" fill="#152e55"/>
      <path id="Tracé_171748" data-name="Tracé 171748" d="M49.386,175.446a2.281,2.281,0,0,0-2.305-1.85,2.553,2.553,0,0,0-.346.024l-7.027.961a2.3,2.3,0,0,0-1.881,1.478,2.031,2.031,0,0,0,.579,2.181l5.084,4.662a2.534,2.534,0,0,0,3.329-.039,2.036,2.036,0,0,0-.042-3.016L45,178.212l2.421-.331a2.339,2.339,0,0,0,1.579-.91,2.021,2.021,0,0,0,.389-1.525" fill="#152e55"/>
      <path id="Tracé_171749" data-name="Tracé 171749" d="M113.914,165.126a2.017,2.017,0,0,0-.389,1.525,2.323,2.323,0,0,0,2.649,1.827l13.752-1.879a2.346,2.346,0,0,0,1.581-.909,2.016,2.016,0,0,0,.388-1.525,2.274,2.274,0,0,0-2.294-1.853,2.618,2.618,0,0,0-.352.025h0l-13.751,1.879a2.344,2.344,0,0,0-1.58.909" fill="#152e55"/>
      <path id="Tracé_171750" data-name="Tracé 171750" d="M157.431,162.836a2.339,2.339,0,0,0,1.579-.909,2.018,2.018,0,0,0,.389-1.526,2.276,2.276,0,0,0-2.3-1.851,2.612,2.612,0,0,0-.351.024h0l-13.752,1.881a2.335,2.335,0,0,0-1.579.909,2.017,2.017,0,0,0-.389,1.525,2.328,2.328,0,0,0,2.65,1.827Z" fill="#152e55"/>
      <path id="Tracé_171751" data-name="Tracé 171751" d="M102.425,170.358a2.339,2.339,0,0,0,1.579-.909,2.018,2.018,0,0,0,.389-1.526,2.277,2.277,0,0,0-2.3-1.851,2.6,2.6,0,0,0-.35.024l-13.754,1.882a2.335,2.335,0,0,0-1.579.909,2.017,2.017,0,0,0-.389,1.525,2.323,2.323,0,0,0,2.65,1.827Z" fill="#152e55"/>
      <path id="Tracé_171752" data-name="Tracé 171752" d="M58.907,172.647a2.014,2.014,0,0,0-.39,1.526A2.311,2.311,0,0,0,61.168,176l13.752-1.881a2.347,2.347,0,0,0,1.58-.909,2.017,2.017,0,0,0,.388-1.526,2.28,2.28,0,0,0-2.3-1.851,2.556,2.556,0,0,0-.347.024l-13.753,1.881a2.341,2.341,0,0,0-1.578.909" fill="#152e55"/>
      <path id="Tracé_171753" data-name="Tracé 171753" d="M170.5,156.7a2.341,2.341,0,0,0-1.58.909,2.019,2.019,0,0,0-.389,1.526,2.311,2.311,0,0,0,2.651,1.826l7.026-.962a2.328,2.328,0,0,0,1.76-1.192l3.141-5.989a2,2,0,0,0,.127-1.582,2.2,2.2,0,0,0-1.179-1.28,2.472,2.472,0,0,0-1.049-.232,2.354,2.354,0,0,0-2.1,1.218l-2.6,4.964Z" fill="#152e55"/>
      <path id="Tracé_171754" data-name="Tracé 171754" d="M232.434,57.419a2.189,2.189,0,0,0-1.179-1.281h0a2.488,2.488,0,0,0-1.05-.232,2.35,2.35,0,0,0-2.1,1.217l-6.15,11.728a1.993,1.993,0,0,0-.127,1.581,2.191,2.191,0,0,0,1.179,1.28,2.48,2.48,0,0,0,3.147-.985L232.306,59a1.989,1.989,0,0,0,.127-1.581" fill="#152e55"/>
      <path id="Tracé_171755" data-name="Tracé 171755" d="M220.135,80.872a2.186,2.186,0,0,0-1.179-1.281h0a2.489,2.489,0,0,0-1.051-.232,2.347,2.347,0,0,0-2.094,1.218L209.659,92.3a2,2,0,0,0-.127,1.582,2.189,2.189,0,0,0,1.18,1.28,2.481,2.481,0,0,0,3.146-.985l6.15-11.728a1.987,1.987,0,0,0,.127-1.58" fill="#152e55"/>
      <path id="Tracé_171756" data-name="Tracé 171756" d="M189.259,141.085l6.15-11.725a2,2,0,0,0,.127-1.582,2.2,2.2,0,0,0-1.178-1.28,2.5,2.5,0,0,0-1.05-.23,2.355,2.355,0,0,0-2.1,1.215l-6.149,11.725a1.989,1.989,0,0,0-.127,1.581,2.185,2.185,0,0,0,1.178,1.281,2.488,2.488,0,0,0,3.148-.985" fill="#152e55"/>
      <path id="Tracé_171757" data-name="Tracé 171757" d="M201.558,117.633l6.15-11.726a2,2,0,0,0,.127-1.581,2.2,2.2,0,0,0-1.179-1.28,2.478,2.478,0,0,0-1.051-.232,2.353,2.353,0,0,0-2.1,1.217l-6.149,11.725a1.991,1.991,0,0,0-.127,1.582,2.192,2.192,0,0,0,1.178,1.28,2.479,2.479,0,0,0,3.148-.985" fill="#152e55"/>
      <path id="Tracé_171758" data-name="Tracé 171758" d="M243.69,48.259a2.2,2.2,0,0,0,1.179-1.281,1.99,1.99,0,0,0-.127-1.58L241.6,39.406a2.422,2.422,0,0,0-4.2,0L234.259,45.4a1.99,1.99,0,0,0-.126,1.58,2.183,2.183,0,0,0,1.179,1.281,2.415,2.415,0,0,0,3.146-.984l1.044-1.99,1.041,1.99a2.48,2.48,0,0,0,3.148.984" fill="#152e55"/>
      <path id="Tracé_171759" data-name="Tracé 171759" d="M257.169,70.431a1.987,1.987,0,0,0-.127-1.58l-6.15-11.727a2.349,2.349,0,0,0-2.095-1.218,2.479,2.479,0,0,0-1.051.233,2.186,2.186,0,0,0-1.18,1.282,1.987,1.987,0,0,0,.127,1.58l6.15,11.726a2.489,2.489,0,0,0,3.146.986,2.186,2.186,0,0,0,1.18-1.282" fill="#152e55"/>
      <path id="Tracé_171760" data-name="Tracé 171760" d="M258.865,80.873a1.992,1.992,0,0,0,.127,1.582l6.15,11.725a2.34,2.34,0,0,0,2.1,1.215,2.456,2.456,0,0,0,1.045-.229,2.189,2.189,0,0,0,1.18-1.282,1.989,1.989,0,0,0-.127-1.581l-6.15-11.725a2.351,2.351,0,0,0-2.1-1.218,2.485,2.485,0,0,0-1.05.232,2.194,2.194,0,0,0-1.18,1.281" fill="#152e55"/>
      <path id="Tracé_171761" data-name="Tracé 171761" d="M281.77,117.338a1.987,1.987,0,0,0-.127-1.58l-6.151-11.728a2.349,2.349,0,0,0-2.094-1.219,2.476,2.476,0,0,0-1.051.233,2.192,2.192,0,0,0-1.181,1.281,1.992,1.992,0,0,0,.127,1.582l6.151,11.727a2.487,2.487,0,0,0,3.146.986,2.186,2.186,0,0,0,1.18-1.282" fill="#152e55"/>
      <path id="Tracé_171762" data-name="Tracé 171762" d="M294.069,140.789a1.989,1.989,0,0,0-.127-1.581l-6.15-11.725a2.351,2.351,0,0,0-2.1-1.218,2.485,2.485,0,0,0-1.05.232,2.189,2.189,0,0,0-1.179,1.281,2,2,0,0,0,.126,1.582l6.15,11.725a2.491,2.491,0,0,0,3.146.986,2.186,2.186,0,0,0,1.18-1.282" fill="#152e55"/>
      <path id="Tracé_171763" data-name="Tracé 171763" d="M295.765,151.234a2,2,0,0,0,.127,1.581l3.142,5.989A2.33,2.33,0,0,0,300.793,160l7.025.962a2.3,2.3,0,0,0,2.652-1.826,2.018,2.018,0,0,0-.389-1.526,2.338,2.338,0,0,0-1.579-.909h0l-5.806-.8-2.6-4.964a2.354,2.354,0,0,0-2.1-1.218,2.469,2.469,0,0,0-1.049.232,2.19,2.19,0,0,0-1.18,1.282" fill="#152e55"/>
      <path id="Tracé_171764" data-name="Tracé 171764" d="M336.006,160.456l-13.752-1.881a2.485,2.485,0,0,0-.343-.023,2.284,2.284,0,0,0-2.309,1.85,2.025,2.025,0,0,0,.389,1.525,2.339,2.339,0,0,0,1.579.909l13.752,1.881a2.312,2.312,0,0,0,2.652-1.826,2.018,2.018,0,0,0-.389-1.526,2.339,2.339,0,0,0-1.579-.909" fill="#152e55"/>
      <path id="Tracé_171765" data-name="Tracé 171765" d="M391.013,167.979,377.261,166.1a2.306,2.306,0,0,0-2.652,1.827,2.025,2.025,0,0,0,.389,1.525,2.339,2.339,0,0,0,1.579.909l13.752,1.881a2.3,2.3,0,0,0,2.652-1.826,2.018,2.018,0,0,0-.389-1.526,2.339,2.339,0,0,0-1.579-.909" fill="#152e55"/>
      <path id="Tracé_171766" data-name="Tracé 171766" d="M347.107,164.164a2.014,2.014,0,0,0,.389,1.525,2.34,2.34,0,0,0,1.579.91l13.749,1.879a2.315,2.315,0,0,0,2.653-1.828,2.023,2.023,0,0,0-.39-1.525,2.343,2.343,0,0,0-1.579-.909l-13.75-1.879a2.569,2.569,0,0,0-.348-.024,2.279,2.279,0,0,0-2.3,1.851" fill="#152e55"/>
      <path id="Tracé_171767" data-name="Tracé 171767" d="M402.113,171.686a2.018,2.018,0,0,0,.389,1.526,2.339,2.339,0,0,0,1.579.909L417.832,176a2.314,2.314,0,0,0,2.653-1.827,2.022,2.022,0,0,0-.389-1.525,2.346,2.346,0,0,0-1.581-.91l-13.751-1.88a2.569,2.569,0,0,0-.348-.024,2.279,2.279,0,0,0-2.3,1.85" fill="#152e55"/>
      <path id="Tracé_171768" data-name="Tracé 171768" d="M435.511,182.9l5.083-4.662a2.033,2.033,0,0,0,.579-2.182,2.274,2.274,0,0,0-1.88-1.477l-7.026-.961a2.435,2.435,0,0,0-.35-.024,2.278,2.278,0,0,0-2.3,1.85,2.02,2.02,0,0,0,.389,1.526,2.344,2.344,0,0,0,1.58.909h0l2.418.331-1.777,1.634a2.035,2.035,0,0,0-.043,3.016,2.533,2.533,0,0,0,3.329.04" fill="#152e55"/>
      <path id="Tracé_171769" data-name="Tracé 171769" d="M377.972,235.681l7.782-7.139a2.034,2.034,0,0,0,.042-3.016,2.461,2.461,0,0,0-3.328-.041l-9.951,9.13a2.063,2.063,0,0,0-.677,1.4q3.066-.168,6.132-.33" fill="#152e55"/>
      <path id="Tracé_171770" data-name="Tracé 171770" d="M405.658,210.288a2.038,2.038,0,0,0,.043-3.016,2.461,2.461,0,0,0-3.328-.041h0l-9.951,9.127a2.036,2.036,0,0,0-.042,3.016,2.529,2.529,0,0,0,3.328.04Z" fill="#152e55"/>
      <path id="Tracé_171771" data-name="Tracé 171771" d="M411.632,199.6a2.059,2.059,0,0,0,.647,1.514h0a2.53,2.53,0,0,0,3.329.039l9.949-9.126a2.035,2.035,0,0,0,.043-3.016,2.455,2.455,0,0,0-3.328-.041l-9.951,9.128a2.064,2.064,0,0,0-.69,1.5" fill="#152e55"/>
      <path id="Tracé_171772" data-name="Tracé 171772" d="M96.846,240.85l-78-71.553,150.068-20.52a4.631,4.631,0,0,0,3.5-2.386L239.5,18.468l67.089,127.924a4.624,4.624,0,0,0,3.5,2.386l150.07,20.52-71.784,65.848q6.992-.348,13.986-.657l70.993-65.12a4.13,4.13,0,0,0,1.168-4.439,4.6,4.6,0,0,0-3.749-2.964L313.852,140.507l-.1-.194L243.67,6.689a4.79,4.79,0,0,0-8.339,0L165.149,140.507,8.23,161.966a4.539,4.539,0,0,0-3.748,2.964,4.129,4.129,0,0,0,1.168,4.439l77.582,71.166c4.534.17,9.074.264,13.614.314" fill="#152e55"/>
      <path id="Tracé_171773" data-name="Tracé 171773" d="M448.482,251.427H30.14a1.88,1.88,0,0,1-1.947-1.587l-2.815-28.426a1.6,1.6,0,0,0-.2-.628L9.65,193.26a1.757,1.757,0,0,1,1.745-2.521H467.606a1.755,1.755,0,0,1,1.733,2.542l-16.03,27.492a1.6,1.6,0,0,0-.212.658l-2.668,28.4a1.879,1.879,0,0,1-1.947,1.595" fill="#152e55"/>
      <path id="Tracé_171774" data-name="Tracé 171774" d="M63.046,203.345h9.211l2.276,37.477H65.586l-.953-15.3-5.4,15.3H50.288l-5.717-15.909-1.059,15.909h-9L37,203.345h9.211L54.734,226.8Z" fill="#fff"/>
      <path id="Tracé_171775" data-name="Tracé 171775" d="M83.267,240.822l4.5-10.606L74.48,203.091h9.9l7.993,16.265,6.83-16.265h9.687L92.954,240.822Z" fill="#fff"/>
      <path id="Tracé_171776" data-name="Tracé 171776" d="M125.933,231.134c-.459.069-.918.119-1.376.153s-.936.068-1.43.1v9.433h-8.946V203.55h8.946a18,18,0,0,1,6.246,1.171,17.344,17.344,0,0,1,5.108,3,13.936,13.936,0,0,1,3.441,4.38,11.827,11.827,0,0,1,1.243,5.345,12.021,12.021,0,0,1-1.323,5.577,13.534,13.534,0,0,1-3.7,4.454l8.576,13.341H132.18Zm-2.805-8.414a9.6,9.6,0,0,0,2.726-.484,8.269,8.269,0,0,0,2.276-1.147,5.519,5.519,0,0,0,1.536-1.657,3.9,3.9,0,0,0,.556-2.015,3.767,3.767,0,0,0-.556-1.988,5.645,5.645,0,0,0-1.536-1.631,8.3,8.3,0,0,0-2.276-1.148,9.667,9.667,0,0,0-2.726-.484Z" fill="#fd4e2e"/>
      <path id="Tracé_171777" data-name="Tracé 171777" d="M163.386,203.346a19.433,19.433,0,0,1,7.559,1.478,20.061,20.061,0,0,1,6.185,4,18.736,18.736,0,0,1,4.176,5.94,18.1,18.1,0,0,1,0,14.582,18.729,18.729,0,0,1-4.176,5.941,20.04,20.04,0,0,1-6.185,4,20.065,20.065,0,0,1-15.12,0,19.7,19.7,0,0,1-6.158-4,18.928,18.928,0,0,1-4.15-5.941,18.108,18.108,0,0,1,0-14.582,18.936,18.936,0,0,1,4.15-5.94,19.723,19.723,0,0,1,6.158-4,19.443,19.443,0,0,1,7.561-1.478m.026,28.809a10.638,10.638,0,0,0,7.411-2.957,10.171,10.171,0,0,0,2.25-3.213,9.8,9.8,0,0,0,0-7.852,10.171,10.171,0,0,0-2.25-3.213,10.724,10.724,0,0,0-14.821,0,10.155,10.155,0,0,0-2.25,3.213,9.8,9.8,0,0,0,0,7.852A10.156,10.156,0,0,0,156,229.2a10.633,10.633,0,0,0,7.411,2.957" fill="#fd4e2e"/>
      <path id="Tracé_171778" data-name="Tracé 171778" d="M208.672,240.822H185.538V203.345h8.946v28.861h14.187Z" fill="#fd4e2e"/>
      <path id="Tracé_171779" data-name="Tracé 171779" d="M235.458,240.822H212.324V203.345h8.946v28.861h14.187Z" fill="#fd4e2e"/>
      <path id="Tracé_171780" data-name="Tracé 171780" d="M263.46,212.013H247.473v5.659h12.97v8.618h-12.97v5.915H263.46v8.617H238.527V203.447l24.934-.05Z" fill="#fd4e2e"/>
      <path id="Tracé_171781" data-name="Tracé 171781" d="M279.816,231.134c-.459.069-.918.119-1.376.153s-.936.068-1.43.1v9.433h-8.946V203.55h8.946a18,18,0,0,1,6.246,1.171,17.345,17.345,0,0,1,5.108,3,13.937,13.937,0,0,1,3.441,4.38,11.827,11.827,0,0,1,1.243,5.345,12.021,12.021,0,0,1-1.323,5.577,13.534,13.534,0,0,1-3.7,4.454l8.576,13.341H286.064Zm-2.805-8.414a9.6,9.6,0,0,0,2.726-.484,8.27,8.27,0,0,0,2.276-1.147,5.52,5.52,0,0,0,1.536-1.657,3.9,3.9,0,0,0,.556-2.015,3.767,3.767,0,0,0-.556-1.988,5.645,5.645,0,0,0-1.536-1.631,8.3,8.3,0,0,0-2.276-1.148,9.667,9.667,0,0,0-2.726-.484Z" fill="#fd4e2e"/>
      <path id="Tracé_171782" data-name="Tracé 171782" d="M308.243,203.244a19.667,19.667,0,0,1,7.279,1.784,20.113,20.113,0,0,1,5.929,4.131,19.23,19.23,0,0,1,3.969,5.915,17.905,17.905,0,0,1,1.457,7.189,17.524,17.524,0,0,1-1.43,7.062,18.44,18.44,0,0,1-3.944,5.788,19.511,19.511,0,0,1-5.9,4,20.573,20.573,0,0,1-7.358,1.708H299.3v-37.63h8.946Zm0,28.911a11.54,11.54,0,0,0,3.838-1.045,10.866,10.866,0,0,0,3.071-2.142,9.6,9.6,0,0,0,2.038-3.033,9.24,9.24,0,0,0,.74-3.671,9.93,9.93,0,0,0-.74-3.8,10.4,10.4,0,0,0-2.065-3.213,11.22,11.22,0,0,0-3.07-2.295,10.6,10.6,0,0,0-3.812-1.1Z" fill="#fff"/>
      <path id="Tracé_171783" data-name="Tracé 171783" d="M353.292,212.013H337.3v5.659h12.97v8.618H337.3v5.915h15.987v8.617H328.358V203.447l24.934-.05Z" fill="#fff"/>
      <path id="Tracé_171784" data-name="Tracé 171784" d="M369.648,231.134c-.459.069-.918.119-1.376.153s-.936.068-1.43.1v9.433H357.9V203.55h8.946a18,18,0,0,1,6.246,1.171,17.345,17.345,0,0,1,5.108,3,13.936,13.936,0,0,1,3.441,4.38,11.827,11.827,0,0,1,1.243,5.345,12.021,12.021,0,0,1-1.323,5.577,13.533,13.533,0,0,1-3.7,4.454l8.576,13.341H375.9Zm-2.805-8.414a9.6,9.6,0,0,0,2.726-.484,8.269,8.269,0,0,0,2.276-1.147,5.519,5.519,0,0,0,1.536-1.657,3.9,3.9,0,0,0,.556-2.015,3.767,3.767,0,0,0-.556-1.988,5.644,5.644,0,0,0-1.536-1.631,8.3,8.3,0,0,0-2.276-1.148,9.667,9.667,0,0,0-2.726-.484Z" fill="#fff"/>
      <path id="Tracé_171785" data-name="Tracé 171785" d="M411.256,218.286a13.4,13.4,0,0,1,3.917,4.308,11.213,11.213,0,0,1,.266,10.454,12.89,12.89,0,0,1-3.2,4.054,15.521,15.521,0,0,1-4.739,2.727,16.566,16.566,0,0,1-5.77.994H390.347V203.244l10.322.051a13.013,13.013,0,0,1,4.605.816,12.7,12.7,0,0,1,3.812,2.217,10.326,10.326,0,0,1,2.567,3.264,8.864,8.864,0,0,1,.927,4,8.759,8.759,0,0,1-1.323,4.691m-11.964-6.424v3.467h1.43a3.831,3.831,0,0,0,2.117-.622q.795-.568.794-1.137,0-.518-.794-1.114a3.55,3.55,0,0,0-2.17-.594Zm2.435,20.344a7.6,7.6,0,0,0,2.25-.333,6.98,6.98,0,0,0,1.905-.9,4.637,4.637,0,0,0,1.3-1.308,2.858,2.858,0,0,0,.477-1.566,2.982,2.982,0,0,0-.477-1.59,4.494,4.494,0,0,0-1.3-1.335,6.979,6.979,0,0,0-1.905-.9,7.6,7.6,0,0,0-2.25-.334h-2.435v8.26Z" fill="#fff"/>
      <path id="Tracé_171786" data-name="Tracé 171786" d="M425.866,240.822l4.5-10.606-13.286-27.126h9.9l7.993,16.265,6.83-16.265h9.687l-15.933,37.732Z" fill="#fff"/>
    </g>
  </g>
</svg>
