<?xml version="1.0" encoding="UTF-8" standalone="no"?>
<svg
   xmlns:dc="http://purl.org/dc/elements/1.1/"
   xmlns:cc="http://creativecommons.org/ns#"
   xmlns:rdf="http://www.w3.org/1999/02/22-rdf-syntax-ns#"
   xmlns:svg="http://www.w3.org/2000/svg"
   xmlns="http://www.w3.org/2000/svg"
   xmlns:sodipodi="http://sodipodi.sourceforge.net/DTD/sodipodi-0.dtd"
   xmlns:inkscape="http://www.inkscape.org/namespaces/inkscape"
   viewBox="0 0 687.25336 587.93335"
   height="587.93335"
   width="687.25336"
   xml:space="preserve"
   id="svg2"
   version="1.1"
   sodipodi:docname="logo_maromme.svg"
   inkscape:version="1.0.1 (3bc2e813f5, 2020-09-07)"><sodipodi:namedview
     pagecolor="#ffffff"
     bordercolor="#666666"
     borderopacity="1"
     objecttolerance="10"
     gridtolerance="10"
     guidetolerance="10"
     inkscape:pageopacity="0"
     inkscape:pageshadow="2"
     inkscape:window-width="1920"
     inkscape:window-height="1017"
     id="namedview32"
     showgrid="false"
     inkscape:zoom="0.73817891"
     inkscape:cx="208.2863"
     inkscape:cy="426.21585"
     inkscape:window-x="-8"
     inkscape:window-y="-4"
     inkscape:window-maximized="1"
     inkscape:current-layer="svg2" /><metadata
     id="metadata8"><rdf:RDF><cc:Work
         rdf:about=""><dc:format>image/svg+xml</dc:format><dc:type
           rdf:resource="http://purl.org/dc/dcmitype/StillImage" /></cc:Work></rdf:RDF></metadata><defs
     id="defs6" /><g
     transform="matrix(0.94576182,0,0,-0.94576182,100.22306,502.72942)"
     id="g10"><g
       transform="scale(0.1)"
       id="g12"><path
         id="path14"
         style="fill:#231f20;fill-opacity:1;fill-rule:nonzero;stroke:none"
         d="m 3944.85,4257.72 h 132.22 c 161.82,0 242.82,-99.7 242.82,-298.96 V 1303.2 H 3825.84 V 3268.74 L 3080.12,1791.31 2877.3,1444.12 c -68.24,-92.65 -160.66,-145.14 -286.93,-145.16 -118.37,-0.02 -220.73,56.9 -286.46,149.58 l -207.35,342.77 -749.89,1477.43 V 1303.2 H 852.297 v 2655.56 c 0,199.26 82.445,298.96 247.203,298.96 h 128.01 c 85.24,-8.55 171.97,-102.67 260.25,-281.06 l 983.55,-1939.25 c 47.04,-93.62 88.36,-140.63 123.55,-140.63 23.64,2.94 60.45,50.05 110.43,140.63 l 983.77,1939.25 c 88.14,178.39 173.45,272.51 255.79,281.06" /><path
         id="path16"
         style="fill:#f25c19;fill-opacity:1;fill-rule:nonzero;stroke:none"
         d="m 2774.25,3117.71 541.97,-1067.81 153.05,-252.98 c 50.61,-72.49 124.05,-111.69 211.36,-110.35 93.53,1.45 163.95,29.09 211.77,107.09 l 149.68,256.24 550.34,1090.35 V 1679.1 h 364.64 v 1970.39 c 0,147.07 -59.77,220.65 -179.22,220.65 h -97.57 c -60.78,-6.31 -123.69,-75.75 -188.79,-207.41 L 3765.44,2231.51 c -36.86,-66.82 -64.03,-101.59 -81.48,-103.77 -25.97,0 -56.46,34.69 -91.18,103.77 l -725.86,1431.22 c -65.16,131.66 -129.17,201.1 -192.09,207.41 h -79.8 -14.64 -82.92 c -60.78,-6.31 -123.73,-75.75 -188.79,-207.41 L 1582.64,2231.51 c -36.86,-66.82 -64.04,-101.59 -81.48,-103.77 -25.98,0 -56.46,34.69 -91.18,103.77 L 684.117,3662.73 c -65.168,131.66 -129.172,201.1 -192.09,207.41 h -94.449 c -121.594,0 -182.441,-73.58 -182.441,-220.65 V 1689.7 H 579.988 V 3140.25 L 1133.41,2049.9 1286.47,1796.92 c 43.91,-70.29 124.04,-111.86 211.36,-110.35 82.93,1.45 161.63,33.48 211.77,107.09 l 149.67,256.24 538.68,1067.19 c 0,0 109.56,239.38 182.69,239.38 87.89,0 193.61,-238.76 193.61,-238.76" /><path
         id="path18"
         style="fill:#231f20;fill-opacity:1;fill-rule:nonzero;stroke:none"
         d="m 1228.32,4257.72 c 85.24,-8.55 171.97,-102.67 260.25,-281.06 l 983.59,-1939.25 c 47.04,-93.62 88.32,-140.63 123.51,-140.63 l -498.26,-105.47 -749.89,1477.43" /><path
         id="path20"
         style="fill:#231f20;fill-opacity:1;fill-rule:nonzero;stroke:none"
         d="M 4319.89,3954.54 V 1298.98 h -494.05 v 1965.5 l 494.05,690.06" /><path
         id="path22"
         style="fill:#231f20;fill-opacity:1;fill-rule:nonzero;stroke:none"
         d="m 790.914,692.309 -24.238,-0.028 C 749.082,690.469 732.164,672.52 715.016,637.52 L 540.004,288.352 c -7.84,-14.45 -12.133,-19.383 -13.899,-20.961 -1.921,1.148 -6.804,5.39 -14.343,20.73 l -175.16,349.328 c -17.149,35.102 -34.289,53.02 -53.141,54.86 h -22.758 c -23.57,0 -51.594,-10.657 -51.594,-61.411 V 144.93 h 103.102 v 329.691 l 119.512,-238.09 37.703,-62.769 c 14.258,-16.793 33.023,-26.723 57.719,-29.543 22.691,2.82 41.527,12.433 56.757,29.871 l 36.278,62.969 118.48,237.41 V 144.93 h 103.024 v 485.968 c 0,50.754 -27.563,61.411 -50.77,61.411" /><path
         id="path24"
         style="fill:#231f20;fill-opacity:1;fill-rule:nonzero;stroke:none"
         d="m 2052.58,367.461 c 106.65,0 160.75,46.828 160.75,139.129 v 45.129 c 0,93.301 -54.1,140.59 -160.75,140.59 H 1580.76 V 589.301 h 478.1 c 34.52,0 50.63,-18.731 50.63,-58.949 0,-40.27 -16.11,-59 -50.63,-59 h -478.1 V 370.449 l 430.65,-224.679 220.03,-0.848 -430.59,222.539 h 251.73" /><path
         id="path26"
         style="fill:#231f20;fill-opacity:1;fill-rule:nonzero;stroke:none"
         d="m 2795.2,419.41 c 0,-114.801 -69.48,-170.609 -212.34,-170.609 -143.46,0 -213.23,55.808 -213.23,170.609 0,114.309 69.77,169.879 213.23,169.879 142.86,0 212.34,-55.57 212.34,-169.879 m -213.89,273.711 c -208.35,-0.539 -313.96,-92.922 -313.96,-274.48 0,-182.149 106.14,-274.481 315.51,-274.481 209.89,0.469 316.25,93.121 316.25,275.25 0,181.629 -106.87,273.711 -317.8,273.711" /><path
         id="path28"
         style="fill:#231f20;fill-opacity:1;fill-rule:nonzero;stroke:none"
         d="m 4322.85,586.559 h 635.61 V 694.211 H 4322.85 V 586.559" /><path
         id="path30"
         style="fill:#231f20;fill-opacity:1;fill-rule:nonzero;stroke:none"
         d="m 4324.78,365.871 h 631.76 V 469.75 H 4324.78 V 365.871" /><path
         id="path32"
         style="fill:#231f20;fill-opacity:1;fill-rule:nonzero;stroke:none"
         d="m 4324.78,144.109 h 631.76 V 247.992 H 4324.78 V 144.109" /><path
         id="path34"
         style="fill:#231f20;fill-opacity:1;fill-rule:nonzero;stroke:none"
         d="m 1285.8,638.211 -0.09,0.09 c -6.34,10.898 -11.9,18.91 -16.7,24.281 -14.47,18.027 -33.4,28 -57.56,29.699 -23.07,-1.699 -42.07,-11.711 -56.25,-29.531 -9.91,-11.602 -22.32,-32.32 -37.98,-63.379 L 896.445,155.84 l -5.39,-10.961 h 100.742 l 64.443,121.172 141.3,282.14 c 9.98,18.981 14.87,21.11 14.72,21.379 0.51,-0.269 5.24,-2.808 15,-21.211 l 104.05,-209.8 h -214.47 v -95.477 l 0.23,-7.57 v -1.864 h 180.69 l 7.54,1.864 h 77.17 l 46.04,-86.59 2.07,-4.043 h 101.62 l -225.41,454.613 c -8,15.438 -15.09,28.387 -20.99,38.719" /><path
         id="path36"
         style="fill:#231f20;fill-opacity:1;fill-rule:nonzero;stroke:none"
         d="m 3538.25,688.141 -24.38,-0.032 c -17.59,-1.918 -34.45,-19.89 -51.58,-54.89 l -175.32,-349.68 c -9.24,-17.039 -13.52,-20.84 -13.3,-21.359 -1.11,0.41 -6.21,3.289 -15.01,21.14 l -175.45,349.828 c -17.22,35.071 -34.36,53.082 -53.29,54.993 h -22.76 c -23.58,0 -51.58,-10.672 -51.58,-61.52 V 139.789 h 103.17 v 330.293 l 119.73,-238.492 37.69,-62.899 c 14.26,-16.789 33.19,-26.761 57.94,-29.601 22.77,2.84 41.61,12.48 56.76,29.89 l 36.44,63.122 118.62,237.839 V 139.789 h 103.25 v 486.832 c 0,50.848 -27.72,61.52 -50.93,61.52" /><path
         id="path38"
         style="fill:#231f20;fill-opacity:1;fill-rule:nonzero;stroke:none"
         d="m 4225.29,688.141 -24.38,-0.032 c -17.74,-1.918 -34.59,-19.929 -51.65,-54.89 l -175.32,-349.68 c -9.24,-17.078 -13.53,-20.84 -13.23,-21.359 -1.11,0.41 -6.21,3.179 -15.01,21.14 l -175.52,349.828 c -17.15,35.071 -34.29,53.043 -53.22,54.993 h -22.83 c -23.58,0 -51.59,-10.672 -51.59,-61.52 V 139.789 h 103.25 v 330.293 l 119.65,-238.492 37.77,-62.899 c 14.26,-16.789 33.11,-26.761 57.86,-29.601 22.7,2.84 41.47,12.449 56.77,29.89 l 36.44,63.122 118.69,237.839 V 139.789 h 103.17 v 486.832 c 0,50.848 -27.63,61.52 -50.85,61.52" /><path
         id="path40"
         style="fill:#231f20;fill-opacity:1;fill-rule:nonzero;stroke:none"
         d="m 291.379,909.492 c 1.766,-2.801 3.328,-5.062 4.797,-6.773 4.508,-4.949 9.91,-7.789 17.371,-8.438 6.359,0.649 11.82,3.461 16.109,8.278 1.551,1.57 2.961,3.773 4.813,6.851 1.476,2.68 3.246,5.961 5.238,9.879 l 58.32,117.891 H 363.586 L 313.324,935.441 c -0.066,-0.199 -0.219,-0.359 -0.289,-0.562 -0.082,0.16 -0.16,0.301 -0.226,0.48 l -49.371,98.661 -1.629,3.16 h -34.075 l 58.395,-117.918 c 1.918,-3.813 3.617,-6.961 5.25,-9.77" /><path
         id="path42"
         style="fill:#231f20;fill-opacity:1;fill-rule:nonzero;stroke:none"
         d="M 946.191,1037.17 H 913.082 V 894.461 h 33.109 v 142.709" /><path
         id="path44"
         style="fill:#231f20;fill-opacity:1;fill-rule:nonzero;stroke:none"
         d="m 1506.63,894.23 h 119.73 v 33.461 h -109.09 c -18.93,0 -21.44,8.188 -21.44,16.258 v 93.411 h -33.02 V 932.809 c 0,-17.59 7.61,-38.579 43.82,-38.579" /><path
         id="path46"
         style="fill:#231f20;fill-opacity:1;fill-rule:nonzero;stroke:none"
         d="m 2188.49,894.23 h 119.73 v 33.461 h -109.09 c -18.84,0 -21.35,8.188 -21.35,16.258 v 93.411 h -33.04 V 932.809 c 0,-17.59 7.61,-38.579 43.75,-38.579" /><path
         id="path48"
         style="fill:#231f20;fill-opacity:1;fill-rule:nonzero;stroke:none"
         d="m 2990.23,1037.17 h -163.41 v -33.26 h 163.41 v 33.26" /><path
         id="path50"
         style="fill:#231f20;fill-opacity:1;fill-rule:nonzero;stroke:none"
         d="M 2990.23,927.492 H 2826.82 V 894.23 h 163.41 v 33.262" /><path
         id="path52"
         style="fill:#231f20;fill-opacity:1;fill-rule:nonzero;stroke:none"
         d="m 2990.23,982.301 h -163.41 v -33.34 h 163.41 v 33.34" /><path
         id="path54"
         style="fill:#231f20;fill-opacity:1;fill-rule:nonzero;stroke:none"
         d="m 4280.8,966.402 c 0,32.45 -14.12,71.168 -81.15,71.168 h -82.11 v -87.429 h 33.04 v 54.099 h 48.48 c 43.67,0 48.7,-21.58 48.7,-37.838 0,-16.293 -5.03,-37.953 -48.48,-37.953 h -81.74 v -33.48 h 81.52 c 67.55,0 81.74,38.84 81.74,71.433" /><path
         id="path56"
         style="fill:#231f20;fill-opacity:1;fill-rule:nonzero;stroke:none"
         d="m 4799.4,948.961 h 163.34 v 33.34 H 4799.4 v -33.34" /><path
         id="path58"
         style="fill:#231f20;fill-opacity:1;fill-rule:nonzero;stroke:none"
         d="m 4799.4,894.23 h 163.34 v 33.262 H 4799.4 V 894.23" /><path
         id="path60"
         style="fill:#231f20;fill-opacity:1;fill-rule:nonzero;stroke:none"
         d="m 4799.4,1003.91 h 163.34 v 33.26 H 4799.4 v -33.26" /><path
         id="path62"
         style="fill:#231f20;fill-opacity:1;fill-rule:nonzero;stroke:none"
         d="M 4948.93,804.93 H 215.133 V 788.469 H 4948.93 v 16.461" /></g></g></svg>
